<?xml version="1.0" standalone="no"?>
<!DOCTYPE svg PUBLIC "-//W3C//DTD SVG 20010904//EN"
 "http://www.w3.org/TR/2001/REC-SVG-20010904/DTD/svg10.dtd">
<svg version="1.0" xmlns="http://www.w3.org/2000/svg"
 width="100.000000pt" height="100.000000pt" viewBox="0 0 100.000000 100.000000"
 preserveAspectRatio="xMidYMid meet">

<g transform="translate(0.000000,100.000000) scale(0.100000,-0.100000)"
fill="#000000" stroke="none">
<path d="M262 809 c-49 -14 -118 -88 -132 -141 -27 -99 16 -206 129 -318 66
-65 190 -159 233 -175 22 -9 167 94 248 175 98 98 135 170 135 261 0 55 -4 72
-28 107 -72 110 -218 133 -312 51 l-35 -31 -35 30 c-54 48 -128 62 -203 41z
m121 -20 c21 -6 56 -26 78 -46 l39 -35 39 35 c125 113 313 34 315 -132 1 -77
-40 -155 -124 -240 -64 -65 -207 -171 -230 -171 -22 0 -164 104 -225 165 -144
143 -171 279 -75 375 55 55 110 70 183 49z"/>
<path d="M252 740 c-110 -67 -93 -208 42 -345 64 -64 184 -155 206 -155 35 0
282 211 266 227 -3 3 -32 -22 -65 -55 -70 -71 -178 -152 -202 -152 -9 0 -57
31 -106 69 -113 88 -171 159 -192 238 -15 55 -4 99 34 138 59 58 143 54 205
-10 22 -22 43 -35 60 -35 17 0 38 13 60 35 37 38 94 59 135 49 15 -4 25 -2 25
5 0 15 -85 14 -113 0 -12 -7 -39 -27 -60 -45 -20 -19 -42 -34 -47 -34 -5 0
-27 15 -47 34 -21 18 -48 38 -60 45 -34 17 -104 13 -141 -9z"/>
<path d="M730 742 c0 -10 43 -42 56 -42 10 0 -17 30 -38 41 -10 6 -18 6 -18 1z"/>
<path d="M790 681 c0 -5 5 -13 10 -16 6 -3 10 -2 10 4 0 5 -4 13 -10 16 -5 3
-10 2 -10 -4z"/>
<path d="M800 640 c0 -5 5 -10 10 -10 6 0 10 5 10 10 0 6 -4 10 -10 10 -5 0
-10 -4 -10 -10z"/>
</g>
</svg>
